<svg xmlns="http://www.w3.org/2000/svg" width="28.182" height="28.176" viewBox="0 0 28.182 28.176">
  <path id="Icon_awesome-instagram" data-name="Icon awesome-instagram" d="M14.089,9.1a7.224,7.224,0,1,0,7.224,7.224A7.212,7.212,0,0,0,14.089,9.1Zm0,11.92a4.7,4.7,0,1,1,4.7-4.7,4.7,4.7,0,0,1-4.7,4.7Zm9.2-12.216a1.685,1.685,0,1,1-1.685-1.685A1.681,1.681,0,0,1,23.293,8.806Zm4.784,1.71a8.338,8.338,0,0,0-2.276-5.9,8.393,8.393,0,0,0-5.9-2.276c-2.326-.132-9.3-.132-11.625,0a8.381,8.381,0,0,0-5.9,2.27,8.366,8.366,0,0,0-2.276,5.9c-.132,2.326-.132,9.3,0,11.625a8.338,8.338,0,0,0,2.276,5.9,8.4,8.4,0,0,0,5.9,2.276c2.326.132,9.3.132,11.625,0a8.338,8.338,0,0,0,5.9-2.276,8.393,8.393,0,0,0,2.276-5.9c.132-2.326.132-9.292,0-11.618ZM25.072,24.631a4.755,4.755,0,0,1-2.678,2.678c-1.855.736-6.256.566-8.305.566s-6.457.163-8.305-.566a4.755,4.755,0,0,1-2.678-2.678c-.736-1.855-.566-6.256-.566-8.305s-.163-6.457.566-8.305A4.755,4.755,0,0,1,5.784,5.342c1.855-.736,6.256-.566,8.305-.566s6.457-.163,8.305.566A4.755,4.755,0,0,1,25.072,8.02c.736,1.855.566,6.256.566,8.305S25.808,22.782,25.072,24.631Z" transform="translate(0.005 -2.237)" fill="#fff"/>
</svg>
