<svg xmlns="http://www.w3.org/2000/svg" width="28.01" height="26.675" viewBox="0 0 28.01 26.675">
  <path id="Icon_simple-line" data-name="Icon simple-line" d="M22.6,11.7a.736.736,0,0,1,0,1.472H20.552v1.313H22.6a.735.735,0,1,1,0,1.469H19.816a.736.736,0,0,1-.732-.734V9.653a.737.737,0,0,1,.735-.735H22.6a.735.735,0,0,1,0,1.471H20.552V11.7H22.6Zm-4.5,3.52a.735.735,0,0,1-.5.7.754.754,0,0,1-.232.036.722.722,0,0,1-.6-.292L13.919,11.79v3.431a.734.734,0,1,1-1.467,0V9.653a.731.731,0,0,1,.5-.694.679.679,0,0,1,.226-.039.755.755,0,0,1,.578.3L16.631,13.1V9.653a.735.735,0,1,1,1.471,0v5.568Zm-6.7,0a.734.734,0,1,1-1.468,0V9.653a.734.734,0,1,1,1.468,0Zm-2.878.734H5.739A.739.739,0,0,1,5,15.221V9.653a.735.735,0,0,1,1.471,0v4.833H8.523a.735.735,0,0,1,0,1.469M28.01,12.228c0-6.268-6.285-11.37-14.005-11.37S0,5.959,0,12.228c0,5.615,4.983,10.319,11.712,11.213.456.1,1.077.3,1.235.689a2.851,2.851,0,0,1,.044,1.26l-.191,1.19c-.053.351-.28,1.384,1.224.753s8.072-4.759,11.013-8.14a10.064,10.064,0,0,0,2.974-6.965" transform="translate(0 -0.858)" fill="#303030"/>
</svg>
