<svg xmlns="http://www.w3.org/2000/svg" width="28.01" height="22.749" viewBox="0 0 28.01 22.749">
  <path id="Icon_awesome-twitter" data-name="Icon awesome-twitter" d="M25.131,9.05c.018.249.018.5.018.746,0,7.589-5.776,16.333-16.333,16.333A16.223,16.223,0,0,1,0,23.553a11.876,11.876,0,0,0,1.386.071,11.5,11.5,0,0,0,7.127-2.453A5.751,5.751,0,0,1,3.146,17.19a7.239,7.239,0,0,0,1.084.089,6.071,6.071,0,0,0,1.511-.2,5.741,5.741,0,0,1-4.6-5.634v-.071a5.781,5.781,0,0,0,2.595.729A5.749,5.749,0,0,1,1.955,4.429a16.318,16.318,0,0,0,11.837,6.007,6.481,6.481,0,0,1-.142-1.315,5.746,5.746,0,0,1,9.935-3.928,11.3,11.3,0,0,0,3.643-1.386A5.725,5.725,0,0,1,24.7,6.971a11.508,11.508,0,0,0,3.306-.889A12.34,12.34,0,0,1,25.131,9.05Z" transform="translate(0 -3.381)" fill="#fff"/>
</svg>
