<svg xmlns="http://www.w3.org/2000/svg" width="28.182" height="26.199" viewBox="0 0 28.182 26.199">
  <path id="Icon_awesome-youtube" data-name="Icon awesome-youtube" d="M28.643,8.6a4.283,4.283,0,0,0-2.492-3.316c-2.2-.784-11.01-.784-11.01-.784s-8.813,0-11.01.784A4.283,4.283,0,0,0,1.639,8.6a64.623,64.623,0,0,0-.589,9.027,64.623,64.623,0,0,0,.589,9.027A4.2,4.2,0,0,0,4.13,29.916c2.2.784,11.01.784,11.01.784s8.813,0,11.01-.784a4.2,4.2,0,0,0,2.492-3.263,64.623,64.623,0,0,0,.589-9.027A64.623,64.623,0,0,0,28.643,8.6ZM12.258,23.166V12.086l7.366,5.54-7.366,5.54Z" transform="translate(-1.05 -4.5)" fill="#1d1d1d"/>
</svg>
